<svg width="193" height="19" viewBox="0 0 193 19" fill="none" xmlns="http://www.w3.org/2000/svg">
<path d="M89.3521 7.08686L90.9312 6.3301L89.2205 6.76352C88.2717 7.0043 87.2882 7.12469 86.2978 7.12469C82.6512 7.12469 78.0974 5.66967 77.2732 1.56944L77.2247 1.32178L76.9962 1.45249C75.933 2.06477 74.7071 2.38811 73.4535 2.38811C71.7117 2.38811 70.2711 1.90654 69.0417 0.912441L68.027 0.090332L68.7681 1.13947C71.6597 5.22249 79.9813 8.18071 84.1784 8.18071C86.09 8.18071 87.8284 7.81265 89.3521 7.08342V7.08686Z" fill="#EBFEFF"/>
<path d="M73.4501 15.7941C74.6968 15.7941 75.9226 16.1174 76.9927 16.7297L77.2213 16.8604L77.2698 16.6128C78.0974 12.5125 82.6478 11.0575 86.2943 11.0575C87.2882 11.0575 88.2717 11.1779 89.2171 11.4187L90.9278 11.8521L89.3487 11.0953C87.8249 10.3661 86.0831 9.99805 84.175 9.99805C79.9778 9.99805 71.6563 12.9528 68.7647 17.0393L68.027 18.0815L69.0382 17.2663C70.2711 16.2722 71.7151 15.7906 73.4501 15.7906V15.7941Z" fill="#EBFEFF"/>
<path d="M119.55 2.39529C118.297 2.39529 117.071 2.07195 116.008 1.45967L115.779 1.32896L115.731 1.57662C114.906 5.67685 110.353 7.13188 106.706 7.13188C105.716 7.13188 104.732 7.01148 103.783 6.7707L102.073 6.33728L103.652 7.09404C105.175 7.82327 106.917 8.19133 108.825 8.19133C113.022 8.19133 121.344 5.23655 124.236 1.15009L124.98 0.100952L123.962 0.923061C122.733 1.91716 121.292 2.39873 119.55 2.39873V2.39529Z" fill="#EBFEFF"/>
<path d="M103.652 11.1007L102.073 11.8574L103.783 11.424C104.732 11.1832 105.716 11.0629 106.706 11.0629C110.353 11.0629 114.906 12.5179 115.731 16.6181L115.779 16.8658L116.008 16.7351C117.078 16.1228 118.304 15.7994 119.55 15.7994C121.285 15.7994 122.729 16.281 123.962 17.2751L124.973 18.0903L124.236 17.0481C121.344 12.9651 113.022 10.0068 108.825 10.0068C106.914 10.0068 105.172 10.3749 103.652 11.1041V11.1007Z" fill="#EBFEFF"/>
<path d="M124.857 8.81178H102.486C102.33 7.07468 100.096 5.66093 97.2774 5.48894C97.1424 5.48206 97.0073 5.47862 96.8723 5.47518V5.2C97.7553 5.11057 98.4514 4.41229 98.4514 3.55922C98.4514 2.64424 97.6618 1.90125 96.6887 1.90125H96.3217C95.3486 1.90125 94.559 2.64424 94.559 3.55922C94.559 4.41573 95.2516 5.11401 96.1381 5.2V5.47518C96.0031 5.47518 95.8645 5.47862 95.7329 5.48894C92.9141 5.66437 90.6804 7.07468 90.5246 8.81178H68.1537C64.8604 8.64323 61.3385 7.34299 58.1526 5.10369L58.0279 5.01425L57.9137 5.11745C56.2583 6.64471 54.0524 7.95183 51.6976 8.80834H0.220276V9.15575H51.6733L51.663 9.18327L51.708 9.20047C51.7495 9.21423 51.7911 9.23143 51.8292 9.24863L52.0058 9.31742C54.2429 10.1739 56.338 11.4432 57.9067 12.8948L58.021 12.998L58.1491 12.9086C61.5706 10.5042 65.3799 9.17983 68.8775 9.17983C69.1095 9.17983 69.345 9.17983 69.5839 9.19703V9.17983H90.5177C90.6804 10.9995 93.1253 12.4579 96.1312 12.5164V12.7916C95.2481 12.881 94.5521 13.5793 94.5521 14.4324C94.5521 15.3474 95.3416 16.0904 96.3147 16.0904H96.6818C97.6549 16.0904 98.4445 15.3474 98.4445 14.4324C98.4445 13.5759 97.7519 12.8776 96.8653 12.7916V12.5164C99.8712 12.4579 102.316 10.9995 102.479 9.17983H123.413V9.19703C123.652 9.18327 123.891 9.17983 124.123 9.17983C127.62 9.17983 131.433 10.5042 134.851 12.9086L134.979 12.998L135.093 12.8948C136.662 11.4432 138.761 10.1739 140.994 9.31742L141.171 9.24863C141.212 9.23487 141.254 9.21767 141.292 9.20047L141.337 9.18327L141.327 9.15575H192.78V8.80834H141.309C138.954 7.95183 136.749 6.64127 135.093 5.11745L134.979 5.01425L134.851 5.10369C131.668 7.34299 128.143 8.64323 124.85 8.81178H124.857ZM100.155 9.00096C100.138 10.2083 98.583 11.1887 96.6853 11.1887H96.3182C94.4205 11.1887 92.8656 10.2049 92.8483 9.00096V8.98377C92.8656 7.77296 94.4205 6.79262 96.3182 6.79262H96.6853C98.583 6.79262 100.138 7.7764 100.155 8.98377V9.00096Z" fill="#EBFEFF"/>
</svg>
